<?xml version="1.0" standalone="no"?>
<!DOCTYPE svg PUBLIC "-//W3C//DTD SVG 20010904//EN"
 "http://www.w3.org/TR/2001/REC-SVG-20010904/DTD/svg10.dtd">
<svg version="1.0" xmlns="http://www.w3.org/2000/svg"
 width="407.000000pt" height="124.000000pt" viewBox="0 0 407.000000 124.000000"
 preserveAspectRatio="xMidYMid meet">
<metadata>
Created by potrace 1.16, written by Peter Selinger 2001-2019
</metadata>
<g transform="translate(0.000000,124.000000) scale(0.100000,-0.100000)"
fill="#000000" stroke="none">
<path d="M555 1185 c-310 -68 -524 -334 -525 -651 0 -158 54 -299 169 -444
l20 -25 89 89 90 88 55 -45 c109 -89 253 -137 409 -137 59 0 98 4 98 10 0 6
-8 10 -17 10 -9 0 -13 3 -10 7 4 3 17 1 30 -5 15 -8 32 -9 52 -3 23 7 25 9 9
10 -32 1 -85 22 -79 31 3 5 -10 20 -27 35 -18 15 -36 36 -40 46 -4 11 -14 19
-22 19 -9 0 -13 6 -10 14 3 8 -2 16 -12 18 -10 1 32 3 92 3 116 0 177 12 259
53 145 71 263 219 296 371 17 80 7 234 -20 303 -25 66 -97 177 -118 185 -9 4
-45 -25 -98 -77 l-83 -83 -48 42 c-137 120 -372 177 -559 136z"/>
<path d="M2692 985 c-26 -22 -32 -34 -32 -66 0 -86 100 -123 155 -57 47 56 18
132 -56 144 -28 5 -41 1 -67 -21z"/>
<path d="M3331 996 c-55 -31 -65 -93 -22 -137 60 -59 151 -24 151 58 -1 45
-16 68 -54 83 -35 13 -46 12 -75 -4z"/>
<path d="M2960 890 l-65 -29 0 -258 c0 -292 3 -306 75 -343 60 -31 205 -26
259 9 23 15 -3 96 -27 86 -9 -4 -38 -10 -64 -12 -40 -5 -50 -2 -72 20 -25 25
-26 30 -26 152 l0 125 90 0 90 0 0 60 0 60 -90 0 -90 0 0 80 c0 44 -3 80 -7
79 -5 -1 -37 -14 -73 -29z"/>
<path d="M1993 768 c-23 -5 -52 -20 -65 -33 -29 -31 -38 -31 -38 0 l0 24 -75
-27 -75 -27 0 -232 0 -233 75 0 75 0 0 184 0 184 27 17 c42 28 103 31 133 7
25 -20 25 -22 28 -207 l3 -186 67 3 67 3 3 183 2 183 33 19 c41 25 88 25 118
1 23 -18 24 -26 29 -180 5 -156 6 -161 31 -186 30 -31 81 -41 134 -26 67 18
70 23 53 67 -10 24 -23 40 -34 40 -11 1 -24 2 -30 3 -8 1 -13 49 -16 149 -4
161 -17 205 -69 245 -66 49 -173 40 -236 -19 l-35 -34 -21 26 c-23 29 -91 64
-122 63 -11 -1 -39 -5 -62 -11z"/>
<path d="M3705 771 c-125 -31 -195 -127 -195 -267 0 -159 91 -255 253 -271 51
-4 80 -1 133 16 38 11 77 28 88 36 17 13 18 16 3 52 -9 21 -19 37 -24 36 -4
-1 -26 -9 -48 -17 -52 -20 -158 -20 -195 -1 -32 16 -66 60 -72 90 -3 19 4 20
192 25 l195 5 3 58 c6 106 -56 197 -155 233 -41 14 -129 17 -178 5z m138 -114
c39 -17 55 -35 67 -76 l9 -31 -139 0 -140 0 11 27 c29 77 114 112 192 80z"/>
<path d="M2677 502 l1 -257 71 -3 71 -3 0 261 0 260 -72 0 -73 0 2 -258z"/>
<path d="M3300 500 l0 -261 73 3 72 3 3 258 2 257 -75 0 -75 0 0 -260z"/>
</g>
</svg>
