<?xml version="1.0" standalone="no"?>
<!DOCTYPE svg PUBLIC "-//W3C//DTD SVG 20010904//EN"
 "http://www.w3.org/TR/2001/REC-SVG-20010904/DTD/svg10.dtd">
<svg version="1.0" xmlns="http://www.w3.org/2000/svg"
 width="1181.000000pt" height="658.000000pt" viewBox="0 0 1181.000000 658.000000"
 preserveAspectRatio="xMidYMid meet">
<metadata>
Created by potrace 1.16, written by Peter Selinger 2001-2019
</metadata>
<g transform="translate(0.000000,658.000000) scale(0.100000,-0.100000)"
fill="#000000" stroke="none">
<path d="M1176 6041 c-15 -24 -586 -1216 -586 -1223 0 -4 91 -8 203 -8 l203 0
189 420 c104 231 193 416 197 412 4 -4 90 -191 191 -417 l185 -410 201 -3
c158 -2 201 0 200 10 0 7 -132 285 -292 618 l-292 605 -197 3 c-114 1 -199 -1
-202 -7z"/>
<path d="M3256 4540 c-226 -36 -402 -126 -553 -283 -177 -184 -263 -420 -250
-682 9 -181 56 -325 153 -471 121 -183 307 -312 540 -375 118 -32 373 -33 498
-1 338 85 587 329 678 663 19 72 23 107 22 239 -1 186 -18 264 -93 415 -120
243 -331 408 -606 476 -93 23 -301 33 -389 19z m249 -375 c190 -40 333 -173
401 -375 26 -77 26 -263 0 -340 -32 -93 -66 -151 -124 -212 -100 -105 -205
-155 -347 -165 -364 -25 -640 330 -545 701 40 158 136 278 274 346 118 58 217
71 341 45z"/>
<path d="M570 3625 l0 -895 200 0 200 0 2 555 3 555 423 -555 423 -555 169 0
170 0 0 895 0 895 -195 0 -195 0 -2 -540 -3 -541 -410 540 -410 540 -187 1
-188 0 0 -895z"/>
<path d="M4640 3626 l0 -896 200 0 200 0 0 285 0 285 148 0 147 0 190 -285
190 -284 234 -1 c197 0 232 2 228 14 -3 8 -98 149 -211 314 -113 165 -206 302
-206 305 0 2 30 19 68 37 91 45 201 155 242 242 80 171 79 402 -2 568 -63 129
-203 235 -375 282 -74 21 -104 22 -565 26 l-488 4 0 -896z m960 489 c81 -45
114 -97 118 -190 4 -62 0 -82 -21 -129 -27 -59 -83 -104 -157 -127 -19 -7
-139 -14 -267 -16 l-233 -5 0 252 0 251 253 -3 252 -3 55 -30z"/>
<path d="M6390 4335 l0 -185 270 0 270 0 0 -710 0 -710 200 0 200 0 0 710 0
710 270 0 270 0 0 185 0 185 -740 0 -740 0 0 -185z"/>
<path d="M8140 3625 l0 -895 200 0 200 0 0 355 0 355 360 0 360 0 0 -355 0
-355 200 0 200 0 0 895 0 895 -200 0 -200 0 0 -355 0 -355 -360 0 -360 0 0
355 0 355 -200 0 -200 0 0 -895z"/>
<path d="M1376 2410 c-375 -59 -647 -294 -752 -647 -35 -120 -44 -326 -19
-458 56 -297 254 -547 523 -660 140 -58 207 -70 397 -69 140 1 184 5 250 23
150 40 281 115 410 234 l60 56 -131 131 -131 132 -71 -59 c-335 -281 -783
-154 -887 252 -19 76 -19 224 0 300 55 214 220 366 430 397 144 20 297 -28
441 -138 39 -30 74 -54 77 -54 9 0 247 278 247 288 0 17 -105 105 -177 148
-89 53 -179 88 -278 109 -96 20 -307 28 -389 15z"/>
<path d="M3262 2410 c-223 -32 -406 -124 -559 -283 -177 -184 -263 -420 -250
-682 18 -356 221 -655 538 -792 144 -63 216 -76 399 -77 200 -1 292 19 447 94
246 120 412 321 485 591 19 72 23 107 22 239 -1 186 -18 264 -93 415 -123 247
-351 423 -626 480 -95 20 -276 27 -363 15z m243 -375 c190 -40 333 -173 401
-375 26 -77 26 -263 0 -340 -76 -225 -246 -361 -471 -377 -364 -25 -640 330
-545 701 27 106 63 169 141 249 128 129 295 180 474 142z"/>
<path d="M10332 2381 c-169 -43 -306 -144 -369 -272 -42 -85 -52 -135 -53
-249 0 -213 73 -337 256 -428 90 -45 149 -65 355 -121 247 -67 319 -115 319
-211 0 -43 -5 -55 -36 -90 -45 -50 -108 -70 -219 -70 -149 0 -304 56 -448 163
-58 42 -70 48 -81 36 -95 -105 -217 -262 -212 -274 3 -8 33 -35 67 -60 197
-145 424 -218 679 -217 199 1 348 46 468 141 197 157 239 505 86 707 -39 51
-141 120 -237 161 -45 19 -161 56 -258 83 -188 52 -270 84 -307 120 -68 64
-51 166 35 217 117 68 337 27 536 -100 32 -21 61 -37 65 -37 9 0 193 267 199
288 9 38 -227 165 -378 203 -121 31 -365 36 -467 10z"/>
<path d="M4620 1495 l0 -896 438 3 c433 4 438 4 533 30 337 91 565 312 650
628 29 108 36 281 15 398 -55 313 -267 563 -565 667 -157 55 -176 57 -638 62
l-433 5 0 -897z m849 510 c92 -24 163 -65 231 -134 101 -102 150 -225 150
-381 0 -248 -141 -440 -371 -507 -37 -10 -117 -17 -256 -20 l-203 -5 0 531 0
531 198 0 c139 0 213 -4 251 -15z"/>
<path d="M6530 1495 l0 -895 685 0 685 0 0 180 0 180 -485 0 -485 0 0 180 0
180 420 0 420 0 0 180 0 180 -420 0 -420 0 0 175 0 175 475 0 475 0 0 180 0
180 -675 0 -675 0 0 -895z"/>
<path d="M8160 1496 l0 -886 200 0 200 0 0 280 0 280 148 0 147 -1 185 -277
185 -277 233 -3 c127 -1 232 0 232 3 0 3 -91 140 -203 303 -112 163 -207 302
-211 309 -4 8 17 24 66 49 96 48 194 146 235 234 44 93 58 161 58 280 0 183
-45 303 -154 410 -75 74 -157 119 -278 152 -74 21 -103 22 -560 26 l-483 4 0
-886z m885 509 c122 -32 187 -111 188 -227 0 -112 -52 -190 -152 -230 -50 -19
-80 -22 -288 -26 l-233 -4 0 251 0 251 213 0 c159 0 228 -4 272 -15z"/>
</g>
</svg>
